{"glyphs":{":":{"x_min":0,"x_max":194,"ha":194,"o":""},"$":{"x_min":0,"x_max":409,"ha":409,"o":"m 237 -5 q 233 -6 233 -10 l 233 -82 q 233 -92 223 -92 l 201 -92 q 191 -92 191 -82 l 192 -12 q 192 -8 188 -8 q 123 -2 84 46 q 45 93 45 167 l 45 188 q 45 198 55 198 l 87 198 q 97 198 97 188 l 97 169 q 97 110 126 74 q 156 38 203 38 q 250 38 281 73 q 312 108 312 164 q 312 201 298 228 q 283 255 260 274 q 238 294 187 333 q 135 372 108 398 q 80 423 62 458 q 44 494 44 543 q 44 615 82 659 q 121 703 184 708 q 188 708 188 712 l 187 788 q 187 798 197 798 l 219 798 q 229 798 229 788 l 229 709 q 229 705 233 704 q 291 693 325 646 q 359 600 359 530 l 359 505 q 359 495 349 495 l 316 495 q 306 495 306 505 l 306 530 q 306 589 276 626 q 247 662 198 662 q 154 662 125 630 q 96 599 96 542 q 96 508 108 483 q 121 458 144 436 q 168 414 216 378 q 275 334 304 307 q 333 280 348 248 q 364 216 364 171 q 364 100 330 53 q 295 6 237 -5 z"},"?":{"x_min":0,"x_max":352,"ha":352,"o":"m 135 205 l 135 270 q 135 311 150 338 q 166 364 198 397 q 232 432 249 462 q 266 491 266 539 q 266 594 242 627 q 217 660 177 660 q 134 660 108 626 q 83 593 83 538 l 83 504 q 83 494 73 494 l 40 496 q 30 496 30 506 l 30 538 q 30 614 71 662 q 112 709 177 709 q 242 709 280 662 q 319 616 319 538 q 319 475 298 438 q 278 401 241 364 q 214 335 202 316 q 189 296 189 267 l 189 205 q 189 195 179 195 l 145 195 q 135 195 135 205 z m 113 53 q 113 75 127 89 q 141 103 163 103 q 185 103 199 89 q 213 75 213 53 q 213 31 199 17 q 185 3 163 3 q 141 3 127 17 q 113 31 113 53 z"},"<":{"x_min":0,"x_max":443,"ha":443,"o":"m 396 66 l 41 244 q 34 247 34 256 l 34 289 q 34 298 41 301 l 396 479 l 401 481 q 404 481 406 478 q 408 476 408 472 l 408 440 q 408 432 401 428 l 90 276 q 86 273 90 270 l 401 117 q 408 113 408 105 l 408 73 q 408 68 404 66 q 401 63 396 66 z"},"'":{"x_min":0,"x_max":106,"ha":106,"o":"m 30 508 l 24 688 q 24 698 34 698 l 70 698 q 80 698 80 688 l 73 508 q 73 498 63 498 l 40 498 q 30 498 30 508 z"},"=":{"x_min":0,"x_max":443,"ha":443,"o":""},"a":{"x_min":0,"x_max":404,"ha":404,"o":"m 349 345 l 349 10 q 349 0 339 0 l 306 0 q 296 0 296 10 l 296 46 q 296 49 294 50 q 293 50 291 48 q 254 -8 175 -8 q 122 -8 83 23 q 44 54 44 132 q 44 215 90 254 q 137 293 214 293 l 292 293 q 296 293 296 297 l 296 343 q 296 399 271 432 q 246 465 202 465 q 168 465 142 443 q 117 421 113 386 q 113 376 103 376 l 67 378 q 62 378 60 381 q 57 384 58 388 q 64 444 105 478 q 146 512 204 512 q 272 512 310 466 q 349 421 349 345 z m 296 150 l 296 245 q 296 249 292 249 l 214 249 q 162 249 130 220 q 99 192 99 136 q 99 87 123 63 q 147 39 186 39 q 231 39 264 68 q 296 97 296 150 z"},"L":{"x_min":0,"x_max":388,"ha":388,"o":"m 79 10 l 79 690 q 79 700 89 700 l 122 700 q 132 700 132 690 l 132 51 q 132 47 136 47 l 370 47 q 380 47 380 37 l 380 10 q 380 0 370 0 l 89 0 q 79 0 79 10 z"},"3":{"x_min":0,"x_max":401,"ha":401,"o":"m 343 209 q 343 153 332 109 q 302 -8 192 -8 q 134 -8 96 24 q 59 57 48 117 q 41 155 40 198 q 40 208 50 208 l 83 208 q 93 208 93 198 q 95 154 100 127 q 120 39 192 39 q 261 39 282 118 q 291 159 291 213 q 291 284 277 326 q 254 395 192 395 q 179 395 171 391 q 167 389 164 390 q 160 390 157 393 l 141 410 q 136 417 140 424 l 275 648 q 276 650 275 652 q 274 653 272 653 l 54 653 q 44 653 44 663 l 44 690 q 44 700 54 700 l 331 700 q 341 700 341 690 l 341 660 q 341 653 338 647 l 210 436 q 209 434 210 432 q 210 431 212 431 q 253 429 282 403 q 311 377 325 333 q 343 284 343 209 z"},";":{"x_min":0,"x_max":183,"ha":183,"o":"m 44 408 q 44 429 58 444 q 73 460 92 460 q 110 460 124 444 q 139 429 139 408 q 139 386 125 370 q 111 355 92 355 q 72 355 58 370 q 44 386 44 408 z m 47 -59 l 68 140 q 69 149 78 149 l 108 149 q 112 149 115 146 q 118 143 117 138 l 86 -61 q 85 -70 76 -70 l 57 -70 q 52 -70 49 -66 q 46 -63 47 -59 z"},"J":{"x_min":0,"x_max":419,"ha":419,"o":"m 24 156 l 24 244 q 24 254 34 254 l 67 254 q 77 254 77 244 l 77 155 q 77 103 106 71 q 135 39 182 39 q 229 39 258 71 q 287 103 287 155 l 287 690 q 287 700 297 700 l 330 700 q 340 700 340 690 l 340 156 q 340 82 296 37 q 253 -8 182 -8 q 111 -8 68 37 q 24 82 24 156 z"},"V":{"x_min":0,"x_max":427,"ha":427,"o":"m 184 9 l 38 689 l 38 691 q 38 700 47 700 l 84 700 q 94 700 95 691 l 213 103 q 214 100 215 100 q 216 100 217 103 l 333 691 q 335 700 344 700 l 379 700 q 390 700 388 689 l 243 9 q 242 0 232 0 l 195 0 q 186 0 184 9 z"},"\"":{"x_min":0,"x_max":206,"ha":206,"o":"m 30 503 l 24 683 q 24 693 34 693 l 68 693 q 78 693 78 683 l 72 503 q 72 493 62 493 l 40 493 q 30 493 30 503 z m 132 503 l 127 683 q 127 693 137 693 l 170 693 q 180 693 180 683 l 174 503 q 174 493 164 493 l 142 493 q 132 493 132 503 z"},"7":{"x_min":0,"x_max":355,"ha":355,"o":"m 107 11 l 280 649 q 281 650 280 652 q 278 653 276 653 l 75 653 q 71 653 71 649 l 71 607 q 71 597 61 597 l 36 597 q 26 597 26 607 l 26 690 q 26 700 36 700 l 327 700 q 337 700 337 690 l 337 659 q 337 657 335 647 l 163 9 q 161 0 152 0 l 116 0 q 111 0 108 3 q 106 6 107 11 z"},"S":{"x_min":0,"x_max":409,"ha":409,"o":"m 45 167 l 45 188 q 45 198 55 198 l 87 198 q 97 198 97 188 l 97 169 q 97 110 126 74 q 156 38 203 38 q 250 38 281 73 q 312 108 312 164 q 312 201 298 228 q 283 255 260 274 q 238 294 187 333 q 135 372 108 398 q 80 423 62 458 q 44 494 44 543 q 44 620 87 664 q 130 708 198 708 q 271 708 315 659 q 359 610 359 530 l 359 505 q 359 495 349 495 l 316 495 q 306 495 306 505 l 306 530 q 306 589 276 626 q 247 662 198 662 q 154 662 125 630 q 96 599 96 542 q 96 508 108 483 q 121 458 144 436 q 168 414 216 378 q 275 334 304 307 q 333 280 348 248 q 364 216 364 171 q 364 89 320 40 q 275 -8 204 -8 q 133 -8 89 40 q 45 89 45 167 z"},"}":{"x_min":0,"x_max":255,"ha":255,"o":"m 35 -114 q 25 -114 25 -104 l 25 -77 q 25 -67 35 -67 l 63 -67 q 92 -67 106 -48 q 119 -30 119 10 l 119 218 q 119 262 130 288 q 141 315 164 328 q 169 331 164 333 q 141 345 130 371 q 119 397 119 442 l 119 643 q 119 683 106 702 q 92 720 63 720 l 35 720 q 25 720 25 730 l 25 758 q 25 768 35 768 l 78 768 q 127 768 150 741 q 172 714 172 656 l 172 443 q 172 401 184 380 q 195 358 220 353 q 229 352 229 343 l 229 317 q 229 309 220 307 q 195 302 184 280 q 172 258 172 216 l 172 -3 q 172 -61 150 -88 q 127 -114 78 -114 z"},"Z":{"x_min":0,"x_max":391,"ha":391,"o":"m 36 10 l 36 41 q 36 48 38 53 l 290 648 q 291 650 290 652 q 289 653 287 653 l 46 653 q 36 653 36 663 l 36 690 q 36 700 46 700 l 338 700 q 348 700 348 690 l 348 659 q 348 652 346 647 l 95 52 q 94 50 95 48 q 96 47 98 47 l 338 47 q 348 47 348 37 l 348 10 q 348 0 338 0 l 46 0 q 36 0 36 10 z"},"x":{"x_min":0,"x_max":359,"ha":359,"o":"m 24 12 l 148 249 q 150 252 148 255 l 24 492 q 23 494 23 497 q 23 504 31 504 l 69 504 q 78 504 81 497 l 177 303 q 178 301 180 301 q 182 301 183 303 l 279 497 q 282 504 291 504 l 328 504 q 333 504 335 500 q 337 497 335 492 l 212 255 q 211 252 212 249 l 335 12 q 336 10 336 7 q 336 0 328 0 l 291 0 q 282 0 279 7 l 183 201 q 182 203 180 203 q 178 203 177 201 l 81 7 q 78 0 69 0 l 31 0 q 26 0 24 4 q 22 7 24 12 z"},")":{"x_min":0,"x_max":199,"ha":199,"o":"m 120 757 q 156 683 179 569 q 202 455 202 334 q 202 209 179 92 q 156 -25 118 -100 q 114 -107 106 -107 l 75 -107 q 70 -107 68 -104 q 65 -100 67 -96 q 100 -19 121 96 q 142 211 142 332 q 142 451 121 564 q 100 677 67 752 l 66 756 q 66 764 75 764 l 108 764 q 116 764 120 757 z"},"&":{"x_min":0,"x_max":527,"ha":527,"o":"m 476 7 q 476 0 467 0 l 433 0 q 425 0 421 6 l 407 27 l 373 76 q 370 81 367 76 q 329 32 291 12 q 253 -8 204 -8 q 130 -8 87 34 q 44 75 44 152 q 44 220 76 270 q 109 320 167 371 q 170 372 168 376 q 131 433 114 463 q 97 493 92 514 q 86 535 86 561 q 86 628 124 668 q 161 708 221 708 q 281 708 320 668 q 358 628 358 563 q 358 502 327 458 q 296 413 238 363 q 235 362 237 358 l 302 261 l 368 165 q 369 164 371 164 q 373 164 374 165 q 385 183 423 248 q 425 252 429 253 q 433 254 437 252 l 461 238 q 469 233 464 224 q 433 168 402 122 q 401 119 402 116 l 474 12 z m 139 559 q 139 529 150 501 q 162 473 204 408 q 206 404 209 407 q 256 448 280 484 q 305 519 305 563 q 305 606 282 632 q 258 659 222 659 q 185 659 162 632 q 139 605 139 559 z m 341 118 q 343 121 341 124 l 315 161 l 290 198 l 202 326 q 201 331 197 327 q 149 282 123 242 q 97 203 97 153 q 97 100 126 70 q 156 39 209 39 q 246 39 278 58 q 309 77 341 118 z"},"_":{"x_min":0,"x_max":365,"ha":365,"o":"m 24 10 l 24 34 q 24 44 34 44 l 331 44 q 341 44 341 34 l 341 10 q 341 0 331 0 l 34 0 q 24 0 24 10 z"},"v":{"x_min":0,"x_max":364,"ha":364,"o":"m 152 9 l 27 493 l 26 496 q 26 504 36 504 l 74 504 q 83 504 85 495 l 180 90 q 181 87 182 87 q 183 87 184 90 l 279 495 q 281 504 290 504 l 329 503 q 334 503 336 500 q 339 497 337 492 l 214 9 q 213 0 203 0 l 163 0 q 154 0 152 9 z"},"O":{"x_min":0,"x_max":451,"ha":451,"o":"m 61 160 l 61 539 q 61 615 106 662 q 151 708 225 708 q 299 708 345 662 q 391 615 391 539 l 391 160 q 391 85 345 38 q 299 -8 225 -8 q 152 -8 106 38 q 61 85 61 160 z m 338 158 l 338 541 q 338 594 306 628 q 275 661 225 661 q 176 661 145 628 q 114 594 114 541 l 114 158 q 114 105 145 72 q 176 39 225 39 q 275 39 306 72 q 338 105 338 158 z"},"(":{"x_min":0,"x_max":199,"ha":199,"o":"m 78 -100 q 42 -25 19 88 q -4 201 -4 323 q -4 449 20 566 q 43 682 81 757 q 85 764 93 764 l 123 764 q 128 764 130 760 q 133 757 131 753 q 99 675 78 560 q 57 445 57 325 q 57 206 78 94 q 99 -19 131 -96 q 132 -97 132 -100 q 132 -103 130 -105 q 127 -107 123 -107 l 90 -107 q 82 -107 78 -100 z"},"C":{"x_min":0,"x_max":441,"ha":441,"o":"m 61 159 l 61 543 q 61 618 106 663 q 150 708 223 708 q 297 708 342 663 q 386 618 386 543 l 386 524 q 386 519 383 516 q 380 513 376 513 l 343 511 q 333 511 333 521 l 333 546 q 333 598 303 630 q 273 661 223 661 q 174 661 144 630 q 114 598 114 546 l 114 155 q 114 103 144 71 q 174 39 223 39 q 272 39 302 71 q 333 103 333 155 l 333 178 q 333 188 343 188 l 376 186 q 386 186 386 176 l 386 159 q 386 83 342 38 q 297 -8 223 -8 q 150 -8 106 38 q 61 83 61 159 z"},"W":{"x_min":0,"x_max":606,"ha":606,"o":"m 162 9 l 31 689 l 31 691 q 31 700 40 700 l 75 700 q 85 700 86 691 l 189 124 q 190 122 191 122 q 192 122 193 124 l 280 691 q 281 700 290 700 l 321 700 q 330 700 331 691 l 423 124 q 424 122 425 122 q 426 122 427 124 l 521 691 q 523 700 531 700 l 566 700 q 571 700 574 697 q 576 694 575 689 l 451 9 q 450 0 440 0 l 408 0 q 400 0 398 9 l 308 575 q 307 577 306 577 q 305 577 304 575 l 215 9 q 214 0 205 0 l 173 0 q 164 0 162 9 z"},"A":{"x_min":0,"x_max":391,"ha":391,"o":"m 325 9 l 298 140 q 298 142 296 143 q 295 144 293 144 l 97 144 q 95 144 94 143 q 92 142 92 140 l 65 9 q 64 0 54 0 l 21 0 q 16 0 14 3 q 11 6 12 11 l 164 691 q 166 700 175 700 l 215 700 q 225 700 226 691 l 379 11 l 379 9 q 379 0 370 0 l 336 0 q 327 0 325 9 z m 106 188 l 283 188 q 286 188 286 192 l 197 615 q 196 618 195 618 q 194 618 193 615 l 103 192 q 103 188 106 188 z"},"f":{"x_min":0,"x_max":272,"ha":272,"o":"m 139 544 l 139 508 q 139 504 143 504 l 225 504 q 235 504 235 494 l 235 472 q 235 462 225 462 l 143 462 q 139 462 139 458 l 139 10 q 139 0 129 0 l 96 0 q 86 0 86 10 l 86 458 q 86 462 82 462 l 40 462 q 30 462 30 472 l 30 494 q 30 504 40 504 l 82 504 q 86 504 86 508 l 86 545 q 86 629 115 668 q 144 708 213 708 l 228 708 q 238 708 238 698 l 237 672 q 237 662 227 662 l 214 662 q 171 662 155 634 q 139 605 139 544 z"},"Q":{"x_min":0,"x_max":439,"ha":439,"o":"m 378 537 l 378 163 q 378 95 344 50 q 309 4 250 -5 q 246 -6 246 -10 l 246 -110 q 246 -120 236 -120 l 202 -120 q 192 -120 192 -110 l 192 -10 q 192 -6 188 -5 q 130 6 96 50 q 61 95 61 163 l 61 537 q 61 613 105 660 q 149 708 220 708 q 291 708 334 660 q 378 613 378 537 z m 325 542 q 325 595 296 628 q 266 661 220 661 q 173 661 144 628 q 114 595 114 542 l 114 158 q 114 105 144 72 q 173 39 220 39 q 266 39 296 72 q 325 105 325 158 z"},"w":{"x_min":0,"x_max":539,"ha":539,"o":"m 131 9 l 26 493 l 26 495 q 26 504 35 504 l 67 504 q 77 504 78 495 l 158 87 q 159 84 160 84 q 161 84 162 87 l 243 495 q 245 504 254 504 l 283 504 q 293 504 294 495 l 376 87 q 377 84 378 84 q 379 84 380 87 l 462 495 q 464 504 473 504 l 504 503 q 509 503 512 500 q 514 497 513 492 l 406 9 q 405 0 395 0 l 362 0 q 353 0 351 9 l 270 402 q 269 405 268 405 q 267 405 266 402 l 187 9 q 186 0 176 0 l 142 0 q 133 0 131 9 z"},"-":{"x_min":0,"x_max":309,"ha":309,"o":"m 34 301 l 34 328 q 34 338 44 338 l 265 338 q 275 338 275 328 l 275 301 q 275 291 265 291 l 44 291 q 34 291 34 301 z"},"E":{"x_min":0,"x_max":427,"ha":427,"o":"m 373 653 l 136 653 q 132 653 132 649 l 132 378 q 132 374 136 374 l 288 374 q 298 374 298 364 l 298 337 q 298 327 288 327 l 136 327 q 132 327 132 323 l 132 51 q 132 47 136 47 l 373 47 q 383 47 383 37 l 383 10 q 383 0 373 0 l 89 0 q 79 0 79 10 l 79 690 q 79 700 89 700 l 373 700 q 383 700 383 690 l 383 663 q 383 653 373 653 z"},"s":{"x_min":0,"x_max":364,"ha":364,"o":"m 46 122 l 46 128 q 46 138 56 138 l 87 138 q 97 138 97 128 l 97 122 q 97 86 123 62 q 149 38 190 38 q 230 38 254 62 q 279 87 279 126 q 279 155 265 174 q 251 193 230 204 q 209 216 173 231 q 134 247 109 262 q 84 278 66 306 q 49 333 49 375 q 49 436 87 472 q 125 508 188 508 q 252 508 290 471 q 328 434 328 375 l 328 372 q 328 362 318 362 l 288 362 q 278 362 278 372 l 278 377 q 278 414 253 439 q 228 464 188 464 q 148 464 124 440 q 100 415 100 376 q 100 349 113 331 q 126 313 146 302 q 165 291 200 275 q 241 258 268 242 q 294 227 313 199 q 332 171 332 128 q 332 68 293 32 q 254 -5 190 -5 q 125 -5 86 30 q 46 66 46 122 z"},">":{"x_min":0,"x_max":443,"ha":443,"o":"m 41 64 q 38 64 36 66 q 34 69 34 73 l 34 105 q 34 113 41 117 l 353 270 q 358 273 353 276 l 41 428 q 34 432 34 440 l 34 472 q 34 477 38 480 q 41 482 46 479 l 401 301 q 408 298 408 289 l 408 256 q 408 247 401 244 l 46 66 z"},"l":{"x_min":0,"x_max":174,"ha":174,"o":"m 61 10 l 61 690 q 61 700 71 700 l 104 700 q 114 700 114 690 l 114 10 q 114 0 104 0 l 71 0 q 61 0 61 10 z"},"8":{"x_min":0,"x_max":418,"ha":418,"o":"m 283 370 q 318 351 337 313 q 360 265 360 193 q 360 141 347 97 q 330 47 294 20 q 258 -8 208 -8 q 159 -8 124 20 q 88 47 71 97 q 57 141 57 194 q 57 257 77 305 q 94 350 133 370 q 137 373 133 376 q 100 394 81 428 q 57 473 57 533 q 57 594 80 637 q 98 672 132 690 q 165 709 208 709 q 251 709 284 691 q 316 673 335 639 q 360 598 360 532 q 360 470 338 430 q 317 393 283 376 q 278 373 283 370 z m 128 445 q 153 396 208 396 q 267 396 292 450 q 308 484 308 530 q 308 582 288 614 q 263 662 208 662 q 152 662 127 611 q 110 577 110 528 q 110 478 128 445 z m 307 195 q 307 251 291 291 q 267 351 208 351 q 178 351 156 334 q 135 318 124 286 q 110 250 110 196 q 110 149 120 116 q 131 79 154 59 q 176 39 208 39 q 241 39 264 60 q 287 81 298 120 q 307 152 307 195 z"},"\\":{"x_min":0,"x_max":313,"ha":313,"o":"m 287 7 q 287 0 278 0 l 245 0 q 236 0 234 9 l 64 689 l 63 693 q 63 700 72 700 l 105 700 q 115 700 116 691 l 286 11 z"},"e":{"x_min":0,"x_max":400,"ha":400,"o":"m 342 233 l 112 233 q 108 233 108 229 l 108 144 q 108 98 134 68 q 161 39 203 39 q 238 39 263 60 q 288 81 296 115 q 299 124 307 124 l 339 122 q 343 122 346 120 q 349 118 348 114 l 348 110 q 338 55 300 24 q 262 -8 203 -8 q 137 -8 96 34 q 55 75 55 141 l 55 362 q 55 428 96 470 q 137 512 203 512 q 270 512 311 470 q 352 428 352 362 l 352 243 q 352 233 342 233 z m 108 359 l 108 283 q 108 279 112 279 l 295 279 q 299 279 299 283 l 299 359 q 299 406 272 436 q 246 465 203 465 q 161 465 134 436 q 108 406 108 359 z"},"b":{"x_min":0,"x_max":417,"ha":417,"o":"m 362 362 l 362 141 q 362 75 324 34 q 287 -8 225 -8 q 195 -8 169 4 q 143 16 125 39 q 123 41 122 40 q 120 40 120 38 l 120 10 q 120 0 110 0 l 77 0 q 67 0 67 10 l 67 690 q 67 700 77 700 l 110 700 q 120 700 120 690 l 120 466 q 120 464 122 464 q 124 463 125 465 q 143 488 169 500 q 195 512 225 512 q 287 512 324 470 q 362 429 362 362 z m 213 465 q 172 465 146 436 q 120 406 120 359 l 120 144 q 120 97 146 68 q 172 39 213 39 q 256 39 283 68 q 310 98 310 144 l 310 359 q 310 406 283 436 q 256 465 213 465 z"},"%":{"x_min":0,"x_max":785,"ha":785,"o":"m 79 572 q 79 609 97 641 q 115 673 146 692 q 178 710 215 710 q 252 710 283 692 q 314 673 332 641 q 350 609 350 572 q 350 534 332 502 q 314 470 283 452 q 252 433 215 433 q 178 433 146 452 q 115 470 97 502 q 79 534 79 572 z m 188 12 l 555 693 q 558 700 567 700 l 588 700 q 594 700 596 696 q 599 693 596 688 l 229 7 q 226 0 217 0 l 196 0 q 190 0 188 4 q 185 7 188 12 z m 314 572 q 314 615 285 645 q 256 675 215 675 q 173 675 144 645 q 115 615 115 572 q 115 528 144 498 q 173 467 215 467 q 256 467 285 498 q 314 528 314 572 z m 436 129 q 436 167 454 198 q 472 230 504 248 q 535 267 572 267 q 608 267 639 248 q 670 230 688 198 q 706 166 706 129 q 706 91 688 59 q 670 27 639 8 q 608 -10 572 -10 q 535 -10 504 8 q 472 27 454 59 q 436 91 436 129 z m 671 129 q 671 172 642 202 q 613 233 572 233 q 529 233 500 203 q 471 173 471 129 q 471 85 500 55 q 529 25 572 25 q 613 25 642 56 q 671 86 671 129 z"},"m":{"x_min":0,"x_max":641,"ha":641,"o":"m 580 347 l 580 10 q 580 0 570 0 l 537 0 q 527 0 527 10 l 527 342 q 527 398 504 431 q 480 464 441 464 q 399 464 374 432 q 350 400 350 344 l 350 10 q 350 0 340 0 l 307 0 q 297 0 297 10 l 297 342 q 297 398 273 431 q 249 464 211 464 q 169 464 144 432 q 119 400 119 344 l 119 10 q 119 0 109 0 l 77 0 q 67 0 67 10 l 67 494 q 67 504 77 504 l 109 504 q 119 504 119 494 l 119 457 q 119 454 121 454 q 123 453 124 456 q 142 483 170 497 q 197 511 227 511 q 265 511 293 491 q 321 471 336 434 q 338 429 341 436 q 358 473 389 492 q 420 511 457 511 q 514 511 547 467 q 580 423 580 347 z"},"#":{"x_min":0,"x_max":582,"ha":582,"o":"m 511 436 l 449 436 q 444 436 444 432 l 418 257 q 418 253 421 253 l 479 253 q 489 253 489 243 l 489 216 q 489 206 479 206 l 415 206 q 410 206 410 202 l 383 23 q 382 14 373 14 l 340 15 q 336 15 333 18 q 330 21 331 26 l 356 202 q 356 206 353 206 l 192 206 q 187 206 187 202 l 160 23 q 159 14 150 14 l 117 15 q 113 15 110 18 q 107 21 108 26 l 133 202 q 133 206 130 206 l 71 206 q 61 206 61 216 l 61 243 q 61 253 71 253 l 137 253 q 142 253 142 257 l 167 432 q 167 436 164 436 l 103 436 q 93 436 93 446 l 93 473 q 93 483 103 483 l 171 483 q 176 483 176 487 l 203 667 q 204 676 213 676 l 246 674 q 251 674 254 671 q 256 668 255 664 l 230 487 q 230 483 233 483 l 394 483 q 399 483 399 487 l 426 667 q 427 676 436 676 l 469 674 q 474 674 476 671 q 479 668 478 664 l 453 487 q 453 483 456 483 l 511 483 q 521 483 521 473 l 521 446 q 521 436 511 436 z m 365 257 l 390 432 q 390 436 387 436 l 226 436 q 221 436 221 432 l 195 257 q 195 253 198 253 l 360 253 q 365 253 365 257 z"},",":{"x_min":0,"x_max":169,"ha":169,"o":"m 41 -63 l 75 145 q 77 154 85 154 l 113 154 q 118 154 120 151 q 123 148 122 143 l 80 -65 q 79 -74 69 -74 l 50 -74 q 46 -74 43 -71 q 40 -68 41 -63 z"},"n":{"x_min":0,"x_max":418,"ha":418,"o":"m 358 355 l 358 10 q 358 0 348 0 l 315 0 q 305 0 305 10 l 305 350 q 305 404 281 434 q 257 464 214 464 q 170 464 145 432 q 120 400 120 344 l 120 10 q 120 0 110 0 l 77 0 q 67 0 67 10 l 67 494 q 67 504 77 504 l 110 504 q 120 504 120 494 l 120 456 q 120 453 122 453 q 123 453 125 455 q 159 511 231 511 q 292 511 325 470 q 358 429 358 355 z"},"h":{"x_min":0,"x_max":418,"ha":418,"o":"m 358 355 l 358 10 q 358 0 348 0 l 315 0 q 305 0 305 10 l 305 350 q 305 404 281 434 q 257 464 214 464 q 170 464 145 432 q 120 400 120 344 l 120 10 q 120 0 110 0 l 77 0 q 67 0 67 10 l 67 690 q 67 700 77 700 l 110 700 q 120 700 120 690 l 120 456 q 120 453 122 453 q 123 453 125 455 q 159 511 231 511 q 292 511 325 470 q 358 429 358 355 z"},"z":{"x_min":0,"x_max":357,"ha":357,"o":"m 37 10 l 37 42 q 37 48 40 55 l 257 450 q 258 452 258 454 q 257 455 255 455 l 50 455 q 40 455 40 465 l 40 494 q 40 504 50 504 l 312 504 q 322 504 322 494 l 322 462 q 322 455 319 449 l 101 54 q 100 52 100 50 q 101 49 103 49 l 312 49 q 322 49 322 39 l 322 10 q 322 0 312 0 l 47 0 q 37 0 37 10 z"},"B":{"x_min":0,"x_max":443,"ha":443,"o":"m 232 0 l 89 0 q 79 0 79 10 l 79 690 q 79 700 89 700 l 226 700 q 309 700 356 653 q 403 606 403 519 q 403 404 317 364 q 315 363 314 362 q 314 361 315 360 q 359 338 382 294 q 406 251 406 189 q 407 99 360 50 q 313 0 232 0 z m 132 649 l 132 387 q 132 383 136 383 l 227 383 q 286 383 318 418 q 351 453 351 516 q 351 581 318 617 q 285 653 227 653 l 136 653 q 132 653 132 649 z m 353 193 q 353 263 320 302 q 287 341 229 341 l 136 341 q 132 341 132 337 l 132 52 q 132 48 136 48 l 229 48 q 288 48 320 86 q 353 124 353 193 z"},"K":{"x_min":0,"x_max":442,"ha":442,"o":"m 79 10 l 79 690 q 79 700 89 700 l 122 700 q 132 700 132 690 l 132 347 q 132 344 134 344 q 136 343 137 346 l 346 693 q 351 700 358 700 l 396 700 q 402 700 404 696 q 406 693 403 688 l 245 422 q 242 419 244 416 l 419 12 l 420 8 q 420 0 411 0 l 373 0 q 365 0 362 8 l 208 368 q 207 372 203 368 l 133 261 q 132 260 132 256 l 132 10 q 132 0 122 0 l 89 0 q 79 0 79 10 z"},"R":{"x_min":0,"x_max":436,"ha":436,"o":"m 349 8 l 239 325 q 238 328 235 328 l 136 328 q 132 328 132 324 l 132 10 q 132 0 122 0 l 89 0 q 79 0 79 10 l 79 690 q 79 700 89 700 l 244 700 q 314 700 357 648 q 400 596 400 512 q 400 445 371 398 q 342 351 292 334 q 288 333 289 329 l 402 11 l 403 7 q 403 0 394 0 l 361 0 q 352 0 349 8 z m 132 649 l 132 376 q 132 372 136 372 l 238 372 q 287 372 317 410 q 347 449 347 512 q 347 576 317 614 q 287 653 238 653 l 136 653 q 132 653 132 649 z"},"T":{"x_min":0,"x_max":411,"ha":411,"o":"m 375 690 l 375 663 q 375 653 365 653 l 232 653 q 228 653 228 649 l 228 10 q 228 0 218 0 l 185 0 q 175 0 175 10 l 175 649 q 175 653 171 653 l 46 653 q 36 653 36 663 l 36 690 q 36 700 46 700 l 365 700 q 375 700 375 690 z"},"P":{"x_min":0,"x_max":436,"ha":436,"o":"m 400 512 q 400 427 358 376 q 315 325 246 325 l 135 325 q 131 325 131 321 l 131 10 q 131 0 121 0 l 88 0 q 78 0 78 10 l 78 692 q 78 702 88 702 l 244 702 q 314 702 357 650 q 400 597 400 512 z m 347 511 q 347 576 317 615 q 287 654 238 654 l 135 654 q 131 654 131 650 l 131 373 q 131 369 135 369 l 238 369 q 287 369 317 408 q 347 447 347 511 z"},"|":{"x_min":0,"x_max":133,"ha":133,"o":"m 40 -70 l 40 750 q 40 760 50 760 l 83 760 q 93 760 93 750 l 93 -70 q 93 -80 83 -80 l 50 -80 q 40 -80 40 -70 z"},"t":{"x_min":0,"x_max":261,"ha":261,"o":"m 220 462 l 140 462 q 136 462 136 458 l 136 136 q 136 86 153 66 q 170 47 207 47 l 217 47 q 227 47 227 37 l 227 10 q 227 0 217 0 l 197 0 q 141 0 112 26 q 84 52 84 123 l 84 458 q 84 462 80 462 l 39 462 q 29 462 29 472 l 29 494 q 29 504 39 504 l 80 504 q 84 504 84 508 l 84 620 q 84 630 94 630 l 126 630 q 136 630 136 620 l 136 508 q 136 504 140 504 l 220 504 q 230 504 230 494 l 230 472 q 230 462 220 462 z"},"M":{"x_min":0,"x_max":514,"ha":514,"o":"m 392 700 l 426 700 q 436 700 436 690 l 436 10 q 436 0 426 0 l 393 0 q 383 0 383 10 l 383 577 q 383 580 381 580 q 379 580 378 578 l 268 334 q 265 326 258 326 q 250 326 247 333 l 136 576 q 134 578 132 578 q 131 578 131 575 l 131 10 q 131 0 121 0 l 88 0 q 78 0 78 10 l 78 690 q 78 700 88 700 l 122 700 q 130 700 133 693 l 255 431 q 256 429 258 429 q 260 429 261 431 l 381 693 q 384 700 392 700 z"},"g":{"x_min":0,"x_max":406,"ha":406,"o":"m 307 504 l 341 504 q 351 504 351 494 l 351 6 q 351 -97 304 -151 q 257 -205 153 -201 q 143 -201 143 -191 l 143 -164 q 143 -154 156 -154 q 232 -154 264 -113 q 297 -72 297 10 l 297 48 q 297 51 295 52 q 293 52 292 49 q 275 22 248 8 q 222 -5 190 -5 q 128 -5 92 36 q 55 78 55 145 l 55 362 q 55 429 92 470 q 128 512 190 512 q 222 512 249 498 q 276 484 292 458 q 294 456 296 456 q 297 456 297 459 l 297 494 q 297 504 307 504 z m 297 147 l 297 359 q 297 406 271 436 q 245 465 204 465 q 162 465 135 436 q 108 406 108 359 l 108 147 q 108 101 135 72 q 162 42 204 42 q 245 42 271 71 q 297 100 297 147 z"},"j":{"x_min":0,"x_max":195,"ha":195,"o":"m 43 655 q 43 677 57 691 q 71 705 93 705 q 115 705 129 691 q 143 677 143 655 q 143 633 129 619 q 115 605 93 605 q 71 605 57 619 q 43 633 43 655 z m -23 -199 l -23 -172 q -23 -162 -13 -162 q 27 -160 47 -132 q 67 -103 67 -55 l 67 494 q 67 504 77 504 l 110 504 q 120 504 120 494 l 120 -55 q 120 -130 90 -169 q 60 -208 -13 -209 q -23 -209 -23 -199 z"},"i":{"x_min":0,"x_max":205,"ha":205,"o":"m 52 655 q 52 677 66 691 q 80 705 102 705 q 124 705 138 691 q 152 677 152 655 q 152 633 138 619 q 124 605 102 605 q 80 605 66 619 q 52 633 52 655 z m 76 10 l 76 494 q 76 504 86 504 l 119 504 q 129 504 129 494 l 129 10 q 129 0 119 0 l 86 0 q 76 0 76 10 z"},"y":{"x_min":0,"x_max":353,"ha":353,"o":"m 39 -190 l 39 -164 q 39 -154 49 -154 l 50 -154 q 80 -153 96 -142 q 113 -130 124 -99 q 136 -68 149 -3 q 150 -1 150 0 q 149 2 149 3 l 21 493 l 20 496 q 20 504 30 504 l 65 504 q 74 504 76 495 l 175 78 q 176 75 177 75 q 178 75 179 78 l 277 495 q 279 504 288 504 l 324 503 q 329 503 332 500 q 334 497 332 492 l 191 -51 q 174 -116 158 -147 q 141 -178 117 -189 q 93 -200 50 -200 l 45 -200 q 43 -200 41 -197 q 39 -194 39 -190 z"},"@":{"x_min":0,"x_max":763,"ha":763,"o":"m 708 329 q 708 311 704 275 q 692 182 646 130 q 601 78 533 78 q 466 78 440 126 q 437 131 434 126 q 420 101 397 88 q 374 76 348 76 q 306 76 279 102 q 252 128 252 170 q 252 192 259 230 l 263 260 l 267 296 q 271 325 272 335 q 279 383 308 412 q 337 440 382 440 q 400 440 417 432 q 434 425 446 410 q 448 408 450 408 q 451 408 451 411 l 453 426 q 454 435 463 435 l 484 435 q 489 435 492 432 q 495 428 494 424 l 467 213 q 466 207 466 196 q 466 159 486 138 q 505 116 540 116 q 587 116 619 158 q 651 199 661 274 q 664 300 664 324 q 664 398 634 453 q 603 508 547 538 q 491 568 417 568 q 338 568 270 528 q 201 489 156 418 q 110 346 99 254 q 96 229 96 205 q 96 127 127 70 q 158 12 212 -19 q 267 -50 336 -50 q 386 -50 430 -36 q 473 -23 499 -3 q 502 0 506 0 q 510 0 513 -5 l 523 -19 q 525 -22 525 -26 q 525 -30 521 -33 q 490 -57 438 -73 q 387 -89 328 -89 q 248 -89 186 -54 q 123 -18 88 47 q 54 112 54 200 q 54 218 58 256 q 71 358 123 438 q 175 517 254 562 q 333 606 423 606 q 508 606 572 572 q 637 538 672 476 q 708 413 708 329 z m 423 185 l 425 199 l 426 208 l 443 343 q 443 371 428 388 q 413 404 387 404 q 359 404 338 384 q 318 365 313 333 q 305 273 304 258 q 300 224 297 208 l 294 185 q 291 152 306 132 q 322 113 351 113 q 379 113 398 132 q 418 152 423 185 z"},".":{"x_min":0,"x_max":181,"ha":181,"o":""},"p":{"x_min":0,"x_max":423,"ha":423,"o":"m 368 362 l 368 142 q 368 75 330 34 q 293 -8 231 -8 q 201 -8 175 4 q 149 16 131 39 q 129 41 128 40 q 126 40 126 38 l 126 -186 q 126 -196 116 -196 l 83 -196 q 73 -196 73 -186 l 73 494 q 73 504 83 504 l 116 504 q 126 504 126 494 l 126 466 q 126 464 128 464 q 130 463 131 465 q 149 488 175 500 q 201 512 231 512 q 293 512 330 470 q 368 429 368 362 z m 219 465 q 178 465 152 436 q 126 407 126 360 l 126 144 q 126 97 152 68 q 178 39 219 39 q 262 39 289 68 q 316 98 316 144 l 316 360 q 316 406 289 436 q 262 465 219 465 z"},"X":{"x_min":0,"x_max":423,"ha":423,"o":"m 41 12 l 183 347 q 185 350 183 353 l 41 688 l 40 692 q 40 700 49 700 l 85 700 q 93 700 96 692 l 209 407 q 210 404 212 404 q 214 404 215 407 l 328 692 q 331 700 339 700 l 374 700 q 379 700 382 696 q 384 693 382 688 l 240 352 q 239 349 240 346 l 382 12 l 383 8 q 383 0 374 0 l 339 0 q 331 0 328 8 l 215 292 q 214 295 212 294 q 210 294 209 292 l 95 8 q 92 0 84 0 l 49 0 q 44 0 42 4 q 39 7 41 12 z"},"*":{"x_min":0,"x_max":360,"ha":360,"o":"m 162 404 l 162 532 q 162 534 160 535 q 159 536 157 535 l 51 469 l 46 467 q 41 467 37 473 l 29 487 q 27 491 27 493 q 27 499 32 501 l 140 567 q 142 568 142 570 q 142 572 140 573 l 32 639 q 24 644 29 653 l 37 667 q 43 677 51 671 l 157 605 q 159 604 160 605 q 162 606 162 608 l 162 737 q 162 747 172 747 l 189 747 q 199 747 199 737 l 199 608 q 199 606 201 605 q 203 604 204 605 l 309 671 l 314 673 q 319 673 323 667 l 331 653 q 333 649 333 647 q 333 642 328 639 l 221 573 q 220 572 220 570 q 220 568 221 567 l 328 501 q 336 496 331 487 l 323 473 q 317 463 309 469 l 204 535 q 203 536 201 535 q 199 534 199 532 l 199 404 q 199 394 189 394 l 172 394 q 162 394 162 404 z"},"Y":{"x_min":0,"x_max":411,"ha":411,"o":"m 179 10 l 179 320 q 179 324 178 325 l 40 688 l 39 692 q 39 700 48 700 l 83 700 q 92 700 95 692 l 203 386 q 204 384 206 384 q 208 384 209 386 l 316 692 q 319 700 328 700 l 363 700 q 368 700 370 696 q 373 693 371 688 l 233 325 q 232 324 232 320 l 232 10 q 232 0 222 0 l 189 0 q 179 0 179 10 z"},"c":{"x_min":0,"x_max":394,"ha":394,"o":"m 55 142 l 55 362 q 55 428 96 470 q 137 512 203 512 q 247 512 281 494 q 315 475 334 444 q 352 414 352 378 l 352 372 q 352 362 342 362 l 309 360 q 299 360 299 370 l 299 376 q 299 412 272 438 q 245 465 203 465 q 161 465 134 436 q 108 406 108 359 l 108 144 q 108 98 134 68 q 161 39 203 39 q 245 39 272 66 q 299 92 299 128 l 299 133 q 299 143 309 143 l 342 143 q 352 143 352 133 l 352 125 q 352 89 334 58 q 315 28 281 10 q 247 -8 203 -8 q 136 -8 96 34 q 55 75 55 142 z"},"!":{"x_min":0,"x_max":244,"ha":244,"o":"m 101 235 l 97 690 q 97 700 107 700 l 140 700 q 150 700 150 690 l 145 235 q 145 225 135 225 l 111 225 q 101 225 101 235 z m 72 54 q 72 76 86 90 q 100 104 122 104 q 144 104 158 90 q 172 76 172 54 q 172 32 158 18 q 144 4 122 4 q 100 4 86 18 q 72 32 72 54 z"},"/":{"x_min":0,"x_max":313,"ha":313,"o":"m 27 11 l 197 691 q 199 700 208 700 l 241 700 q 252 700 249 689 l 79 9 q 78 0 68 0 l 35 0 q 24 0 27 11 z"},"[":{"x_min":0,"x_max":292,"ha":292,"o":"m 25 -104 l 25 758 q 25 768 35 768 l 177 768 q 187 768 187 758 l 187 730 q 187 720 177 720 l 82 720 q 78 720 78 716 l 78 -63 q 78 -67 82 -67 l 178 -67 q 188 -67 188 -77 l 188 -104 q 188 -114 178 -114 l 35 -114 q 25 -114 25 -104 z"},"6":{"x_min":0,"x_max":402,"ha":402,"o":"m 362 212 q 362 174 357 134 q 347 65 310 28 q 272 -8 210 -8 q 152 -8 115 26 q 78 59 67 125 q 59 157 59 210 l 58 539 q 58 615 100 662 q 142 708 210 708 q 272 708 312 662 q 351 615 351 539 l 351 528 q 351 518 341 518 l 308 518 q 298 518 298 528 l 298 539 q 298 592 272 626 q 247 660 210 660 q 166 660 139 626 q 112 593 112 539 l 112 385 q 112 382 114 382 q 115 382 117 384 q 132 409 157 422 q 182 436 212 436 q 268 436 304 403 q 340 370 352 309 q 362 270 362 212 z m 309 215 q 309 261 299 308 q 280 389 210 389 q 140 389 120 303 q 112 267 112 215 q 112 171 118 133 q 136 39 210 39 q 286 39 304 139 q 309 179 309 215 z"},"r":{"x_min":0,"x_max":284,"ha":284,"o":"m 265 498 q 272 494 270 485 l 262 451 q 259 442 249 446 q 233 452 210 451 q 170 450 145 411 q 120 372 120 315 l 120 10 q 120 0 110 0 l 77 0 q 67 0 67 10 l 67 494 q 67 504 77 504 l 110 504 q 120 504 120 494 l 120 432 q 120 429 122 429 q 124 429 125 432 q 139 468 164 488 q 188 508 222 508 q 247 508 265 498 z"},"2":{"x_min":0,"x_max":392,"ha":392,"o":"m 112 47 l 352 47 q 362 47 362 37 l 362 10 q 362 0 352 0 l 53 0 q 43 0 43 10 l 43 40 q 43 47 46 53 q 54 67 59 74 q 84 115 134 198 q 184 282 220 344 q 286 462 286 537 q 286 593 260 627 q 234 661 190 661 q 147 661 122 628 q 96 594 97 538 l 97 502 q 97 492 87 492 l 52 492 q 42 492 42 502 l 42 540 q 44 615 85 662 q 126 708 191 708 q 258 708 299 661 q 340 614 340 537 q 340 446 268 321 q 240 271 180 173 l 109 52 q 108 50 109 48 q 110 47 112 47 z"},"{":{"x_min":0,"x_max":255,"ha":255,"o":"m 83 -3 l 83 216 q 83 258 71 280 q 59 302 34 307 q 25 309 25 317 l 25 343 q 25 352 34 353 q 59 358 71 380 q 83 401 83 443 l 83 656 q 83 714 106 741 q 128 768 177 768 l 219 768 q 229 768 229 758 l 229 730 q 229 720 219 720 l 192 720 q 163 720 150 702 q 136 683 136 643 l 136 442 q 136 397 125 371 q 114 345 90 333 q 85 331 90 328 q 113 315 124 288 q 136 262 136 218 l 136 10 q 136 -30 150 -48 q 163 -67 192 -67 l 219 -67 q 229 -67 229 -77 l 229 -104 q 229 -114 219 -114 l 177 -114 q 128 -114 106 -88 q 83 -61 83 -3 z"},"9":{"x_min":0,"x_max":395,"ha":395,"o":"m 336 490 l 336 161 q 336 85 294 38 q 253 -8 185 -8 q 123 -8 83 38 q 43 85 43 161 l 43 172 q 43 182 53 182 l 86 182 q 96 182 96 172 l 96 161 q 96 108 122 74 q 148 40 185 40 q 229 40 256 74 q 283 107 283 161 l 283 315 q 283 318 282 318 q 280 318 278 316 q 263 291 238 278 q 213 264 183 264 q 127 264 91 297 q 55 330 42 391 q 33 432 33 488 q 33 536 38 566 q 47 635 85 672 q 123 708 185 708 q 243 708 280 674 q 317 641 328 575 q 336 537 336 490 z m 275 397 q 283 433 283 485 q 283 530 277 567 q 257 661 185 661 q 109 661 91 561 q 86 521 86 485 q 86 432 96 392 q 116 311 185 311 q 255 311 275 397 z"}," ":{"x_min":0,"x_max":200,"ha":200,"o":""},"I":{"x_min":0,"x_max":211,"ha":211,"o":"m 79 10 l 79 690 q 79 700 89 700 l 122 700 q 132 700 132 690 l 132 10 q 132 0 122 0 l 89 0 q 79 0 79 10 z"},"H":{"x_min":0,"x_max":470,"ha":470,"o":"m 348 700 l 381 700 q 391 700 391 690 l 391 10 q 391 0 381 0 l 348 0 q 338 0 338 10 l 338 323 q 338 327 334 327 l 136 327 q 132 327 132 323 l 132 10 q 132 0 122 0 l 89 0 q 79 0 79 10 l 79 690 q 79 700 89 700 l 122 700 q 132 700 132 690 l 132 378 q 132 374 136 374 l 334 374 q 338 374 338 378 l 338 690 q 338 700 348 700 z"},"4":{"x_min":0,"x_max":397,"ha":397,"o":"m 373 233 l 373 205 q 373 195 363 195 l 333 195 q 329 195 329 191 l 329 10 q 329 0 319 0 l 286 0 q 276 0 276 10 l 276 191 q 276 195 272 195 l 34 195 q 24 195 24 205 l 24 231 q 24 235 26 243 l 180 692 q 183 700 192 700 l 228 700 q 239 700 236 689 l 86 248 q 85 246 86 244 q 87 243 89 243 l 272 243 q 276 243 276 247 l 276 413 q 276 423 286 423 l 319 423 q 329 423 329 413 l 329 247 q 329 243 333 243 l 363 243 q 373 243 373 233 z"},"~":{"x_min":0,"x_max":454,"ha":454,"o":"m 217 275 q 198 287 182 294 q 165 300 146 300 q 100 300 73 258 q 68 248 59 254 l 42 265 q 34 271 38 278 q 53 310 80 329 q 107 348 143 348 q 167 348 185 341 q 203 334 225 321 q 252 304 272 296 q 291 288 317 288 q 337 288 350 298 q 363 308 380 328 q 387 337 394 331 l 411 319 q 418 313 414 306 q 375 240 318 240 q 289 240 268 248 q 248 257 217 275 z"},"D":{"x_min":0,"x_max":463,"ha":463,"o":"m 79 10 l 79 690 q 79 700 89 700 l 236 700 q 310 700 353 650 q 396 601 396 516 l 396 184 q 396 99 353 50 q 310 0 236 0 l 89 0 q 79 0 79 10 z m 136 47 l 236 47 q 285 48 314 84 q 342 121 342 185 l 342 514 q 342 579 314 616 q 285 653 235 653 l 136 653 q 132 653 132 649 l 132 51 q 132 47 136 47 z"},"^":{"x_min":0,"x_max":390,"ha":390,"o":"m 38 321 l 167 692 q 170 700 179 700 l 210 700 q 219 700 222 692 l 351 321 l 352 317 q 352 310 343 310 l 317 310 q 308 310 305 318 l 198 637 q 197 639 195 639 q 193 639 192 637 l 84 318 q 81 310 72 310 l 46 310 q 35 310 38 321 z"},"0":{"x_min":0,"x_max":442,"ha":442,"o":"m 57 164 l 57 536 q 57 614 102 662 q 147 710 220 710 q 294 710 339 662 q 384 614 384 536 l 384 164 q 384 86 339 38 q 294 -10 220 -10 q 147 -10 102 38 q 57 86 57 164 z m 331 160 l 331 540 q 331 595 300 628 q 270 662 220 662 q 171 662 140 628 q 110 595 110 540 l 110 160 q 110 105 140 72 q 171 38 220 38 q 270 38 300 72 q 331 105 331 160 z"},"F":{"x_min":0,"x_max":399,"ha":399,"o":"m 371 653 l 136 653 q 132 653 132 649 l 132 378 q 132 374 136 374 l 287 374 q 297 374 297 364 l 297 337 q 297 327 287 327 l 136 327 q 132 327 132 323 l 132 10 q 132 0 122 0 l 89 0 q 79 0 79 10 l 79 690 q 79 700 89 700 l 371 700 q 381 700 381 690 l 381 663 q 381 653 371 653 z"},"`":{"x_min":0,"x_max":170,"ha":170,"o":""},"k":{"x_min":0,"x_max":394,"ha":394,"o":"m 67 10 l 67 690 q 67 700 77 700 l 110 700 q 120 700 120 690 l 120 270 q 120 268 122 268 q 124 267 125 269 l 290 498 q 294 504 302 504 l 337 504 q 343 504 345 500 q 347 497 343 492 l 246 356 q 244 354 245 351 l 362 11 l 363 7 q 363 0 354 0 l 319 0 q 310 0 307 8 l 212 305 q 211 311 206 306 l 122 190 q 120 188 120 185 l 120 10 q 120 0 110 0 l 77 0 q 67 0 67 10 z"},"u":{"x_min":0,"x_max":418,"ha":418,"o":"m 308 504 l 341 504 q 351 504 351 494 l 351 10 q 351 0 341 0 l 308 0 q 298 0 298 10 l 298 46 q 298 49 296 50 q 295 50 293 48 q 261 -7 191 -7 q 131 -7 96 30 q 61 66 61 139 l 61 494 q 61 504 71 504 l 104 504 q 114 504 114 494 l 114 151 q 114 96 138 68 q 161 40 204 40 q 248 40 273 72 q 298 104 298 160 l 298 494 q 298 504 308 504 z"},"]":{"x_min":0,"x_max":292,"ha":292,"o":"m 257 -114 l 114 -114 q 104 -114 104 -104 l 104 -77 q 104 -67 114 -67 l 210 -67 q 214 -67 214 -63 l 214 716 q 214 720 210 720 l 114 720 q 104 720 104 730 l 104 758 q 104 768 114 768 l 257 768 q 267 768 267 758 l 267 -104 q 267 -114 257 -114 z"},"U":{"x_min":0,"x_max":475,"ha":475,"o":"m 73 181 l 73 690 q 73 700 83 700 l 116 700 q 126 700 126 690 l 126 175 q 126 114 156 76 q 187 39 237 39 q 287 39 318 76 q 350 114 350 175 l 350 690 q 350 700 360 700 l 393 700 q 403 700 403 690 l 403 181 q 403 96 357 44 q 311 -8 237 -8 q 163 -8 118 44 q 73 95 73 181 z"},"o":{"x_min":0,"x_max":407,"ha":407,"o":"m 55 142 l 55 362 q 55 428 96 470 q 137 512 203 512 q 271 512 312 470 q 353 429 353 362 l 353 142 q 353 75 312 34 q 271 -8 203 -8 q 136 -8 96 34 q 55 75 55 142 z m 300 144 l 300 359 q 300 406 273 436 q 246 465 203 465 q 161 465 134 436 q 108 406 108 359 l 108 144 q 108 98 134 68 q 161 39 203 39 q 246 39 273 68 q 300 98 300 144 z"},"N":{"x_min":0,"x_max":488,"ha":488,"o":"m 367 700 l 399 700 q 409 700 409 690 l 409 10 q 409 0 399 0 l 360 0 q 352 0 349 8 l 136 568 q 135 571 133 570 q 131 570 131 567 l 132 10 q 132 0 122 0 l 89 0 q 79 0 79 10 l 79 690 q 79 700 89 700 l 127 700 q 135 700 138 692 l 352 135 q 353 132 355 132 q 357 133 357 136 l 357 690 q 357 700 367 700 z"},"+":{"x_min":0,"x_max":443,"ha":443,"o":"m 408 332 l 408 309 q 408 299 398 299 l 246 299 q 242 299 242 295 l 242 144 q 242 134 232 134 l 210 134 q 200 134 200 144 l 200 295 q 200 299 196 299 l 44 299 q 34 299 34 309 l 34 332 q 34 342 44 342 l 196 342 q 200 342 200 346 l 200 498 q 200 508 210 508 l 232 508 q 242 508 242 498 l 242 346 q 242 342 246 342 l 398 342 q 408 342 408 332 z"},"G":{"x_min":0,"x_max":447,"ha":447,"o":"m 61 154 l 61 546 q 61 619 106 664 q 150 708 223 708 q 296 708 341 664 q 386 619 386 546 l 386 502 q 386 492 376 492 l 343 492 q 333 492 333 502 l 333 547 q 333 599 303 630 q 273 661 223 661 q 173 661 143 630 q 113 599 113 547 l 113 153 q 113 101 143 70 q 173 39 223 39 q 273 39 303 70 q 333 101 333 153 l 333 294 q 333 298 329 298 l 235 298 q 225 298 225 308 l 225 335 q 225 345 235 345 l 376 345 q 386 345 386 335 l 386 154 q 386 81 341 36 q 296 -8 223 -8 q 150 -8 106 36 q 61 81 61 154 z"},"q":{"x_min":0,"x_max":423,"ha":423,"o":"m 307 504 l 340 504 q 350 504 350 494 l 350 -186 q 350 -196 340 -196 l 307 -196 q 297 -196 297 -186 l 297 38 q 297 40 296 40 q 294 41 292 39 q 274 16 248 4 q 222 -8 192 -8 q 130 -8 92 34 q 55 75 55 142 l 55 362 q 55 429 92 470 q 130 512 192 512 q 222 512 248 500 q 274 488 292 465 q 294 463 296 464 q 297 464 297 466 l 297 494 q 297 504 307 504 z m 297 144 l 297 360 q 297 407 271 436 q 245 465 204 465 q 161 465 134 436 q 107 406 107 360 l 107 144 q 107 98 134 68 q 161 39 204 39 q 245 39 271 68 q 297 97 297 144 z"},"d":{"x_min":0,"x_max":417,"ha":417,"o":"m 307 700 l 340 700 q 350 700 350 690 l 350 10 q 350 0 340 0 l 307 0 q 297 0 297 10 l 297 38 q 297 40 296 40 q 294 41 292 39 q 274 16 248 4 q 222 -8 192 -8 q 130 -8 92 34 q 55 75 55 141 l 55 362 q 55 429 92 470 q 130 512 192 512 q 222 512 248 500 q 274 488 292 465 q 294 463 296 464 q 297 464 297 466 l 297 690 q 297 700 307 700 z m 297 144 l 297 359 q 297 406 271 436 q 245 465 204 465 q 161 465 134 436 q 107 406 107 359 l 107 144 q 107 98 134 68 q 161 39 204 39 q 245 39 271 68 q 297 97 297 144 z"},"1":{"x_min":0,"x_max":249,"ha":249,"o":"m 138 700 l 174 700 q 184 700 184 690 l 184 10 q 184 0 174 0 l 141 0 q 131 0 131 10 l 131 633 q 131 635 130 636 q 128 637 126 636 l 29 597 l 25 596 q 19 596 17 604 l 12 627 l 12 629 q 12 637 18 640 l 125 697 q 131 700 138 700 z"},"5":{"x_min":0,"x_max":401,"ha":401,"o":"m 361 212 q 361 160 354 124 q 343 60 306 26 q 268 -8 209 -8 q 149 -8 112 26 q 74 60 63 127 q 61 137 59 157 q 59 167 69 167 l 102 167 q 112 167 112 157 l 116 131 q 134 39 209 39 q 280 39 300 126 q 308 159 308 212 q 308 267 297 308 q 276 384 209 384 q 133 384 113 307 q 110 298 102 298 l 68 298 q 58 298 58 308 l 58 690 q 58 700 68 700 l 332 700 q 342 700 342 690 l 342 663 q 342 653 332 653 l 115 653 q 111 653 111 649 l 111 381 q 111 378 112 378 q 114 377 116 380 q 132 405 159 418 q 186 431 221 431 q 271 431 304 402 q 336 373 349 317 q 361 274 361 212 z"}}}
